<svg width="80" height="80" xmlns="http://www.w3.org/2000/svg"><g fill="none" fill-rule="evenodd"><path d="M0 0H80V80H0z"/><path d="M29.09 69.182c-8.12 0-15-2.818-20.635-8.455C2.818 55.091 0 48.212 0 40.091c0-8.121 2.818-15 8.455-20.636C14.09 13.818 20.97 11 29.09 11h21.818c8.121 0 15 2.818 20.636 8.455C77.182 25.09 80 31.97 80 40.09c0 8.121-2.818 15-8.455 20.636-5.636 5.637-12.515 8.455-20.636 8.455H29.091zm0-7.273h21.82c6.06 0 11.211-2.121 15.454-6.364 4.242-4.242 6.363-9.393 6.363-15.454 0-6.06-2.12-11.212-6.363-15.455-4.243-4.242-9.394-6.363-15.455-6.363H29.091c-6.06 0-11.212 2.12-15.455 6.363-4.242 4.243-6.363 9.394-6.363 15.455 0 6.06 2.12 11.212 6.363 15.454 4.243 4.243 9.394 6.364 15.455 6.364zM40 47.364c2 0 3.712-.712 5.136-2.137 1.425-1.424 2.137-3.136 2.137-5.136s-.712-3.712-2.137-5.136C43.712 33.53 42 32.818 40 32.818s-3.712.712-5.136 2.137c-1.425 1.424-2.137 3.136-2.137 5.136s.712 3.712 2.137 5.136C36.288 46.652 38 47.364 40 47.364zm-3.636-18.182h7.272c1.03 0 1.894-.349 2.591-1.046.697-.697 1.046-1.56 1.046-2.59 0-1.03-.349-1.894-1.046-2.591-.697-.697-1.56-1.046-2.59-1.046h-7.273c-1.03 0-1.894.349-2.591 1.046-.697.697-1.046 1.56-1.046 2.59 0 1.03.349 1.894 1.046 2.591.697.697 1.56 1.046 2.59 1.046zm0 29.09h7.272c1.03 0 1.894-.348 2.591-1.045.697-.697 1.046-1.56 1.046-2.59 0-1.03-.349-1.895-1.046-2.592-.697-.697-1.56-1.045-2.59-1.045h-7.273c-1.03 0-1.894.348-2.591 1.045-.697.697-1.046 1.561-1.046 2.591 0 1.03.349 1.894 1.046 2.591.697.697 1.56 1.046 2.59 1.046zm18.181-10.908c1.03 0 1.894-.349 2.591-1.046.697-.697 1.046-1.56 1.046-2.59v-7.273c0-1.03-.349-1.894-1.046-2.591-.697-.697-1.56-1.046-2.59-1.046-1.03 0-1.894.349-2.591 1.046-.697.697-1.046 1.56-1.046 2.59v7.273c0 1.03.349 1.894 1.046 2.591.697.697 1.56 1.046 2.59 1.046zm-29.09 0c1.03 0 1.893-.349 2.59-1.046.697-.697 1.046-1.56 1.046-2.59v-7.273c0-1.03-.349-1.894-1.046-2.591-.697-.697-1.56-1.046-2.59-1.046-1.03 0-1.894.349-2.591 1.046-.697.697-1.046 1.56-1.046 2.59v7.273c0 1.03.349 1.894 1.046 2.591.697.697 1.56 1.046 2.59 1.046z" fill="#0D6EFD" fill-rule="nonzero"/></g></svg>