<svg width="80" height="80" xmlns="http://www.w3.org/2000/svg"><g fill="none" fill-rule="evenodd"><path d="M8 76v-5.4h9v-2.7h-5.4v-5.4H17v-2.7H8v-5.4h10.8c1.02 0 1.875.345 2.565 1.035S22.4 56.98 22.4 58v3.6c0 1.02-.345 1.875-1.035 2.565S19.82 65.2 18.8 65.2c1.02 0 1.875.345 2.565 1.035S22.4 67.78 22.4 68.8v3.6c0 1.02-.345 1.875-1.035 2.565S19.82 76 18.8 76H8zm0-25.2v-9.9c0-1.02.345-1.875 1.035-2.565S10.58 37.3 11.6 37.3H17v-2.7H8v-5.4h10.8c1.02 0 1.875.345 2.565 1.035S22.4 31.78 22.4 32.8v6.3c0 1.02-.345 1.875-1.035 2.565S19.82 42.7 18.8 42.7h-5.4v2.7h9v5.4H8zm5.4-25.2V9.4H8V4h10.8v21.6h-5.4zm16.2 39.6V58h43.2v7.2H29.6zm0-21.6v-7.2h43.2v7.2H29.6zm0-21.6v-7.2h43.2V22H29.6z" fill="#0D6EFD" fill-rule="nonzero"/><path d="M0 0H80V80H0z"/></g></svg>