<svg width="150" height="150" xmlns="http://www.w3.org/2000/svg"><g fill="none" fill-rule="evenodd"><path d="M0 0H150V150H0z"/><path d="M60.182 100.364h42.763c1.964-2.255 4.873-3.637 8.146-3.637 6.036 0 10.909 4.873 10.909 10.91 0 6.036-4.873 10.908-10.91 10.908-3.2 0-6.108-1.381-8.145-3.636H74C70.655 131.491 55.964 144 38.364 144 18.29 144 2 127.71 2 107.636 2 90.036 14.51 75.346 31.09 72v15.055c-8.435 2.981-14.545 11.127-14.545 20.581 0 12 9.819 21.819 21.819 21.819 12 0 21.818-9.819 21.818-21.819v-7.272zM78.75 19.58c11.963 0 21.75 9.842 21.75 21.87H115C115 21.332 98.76 5 78.75 5S42.5 21.33 42.5 41.452c0 10.425 4.35 19.756 11.237 26.39L36.7 96.276c-4.93 1.02 13.05 16.84 13.05 10.79 0-1.167-.145-2.26-.508-3.281l24.506-41.045C64.178 60.48 57 51.804 57 41.452c0-12.03 9.787-21.871 21.75-21.871zm32.886 66.096c-4.654 0-8.945 1.458-12.509 3.937L76.945 52.652C71.855 51.777 68 47.33 68 41.935 68 35.885 72.873 31 78.91 31c6.035 0 10.908 4.885 10.908 10.935 0 1.094-.145 2.115-.436 3.135l15.927 26.61a35.826 35.826 0 0 1 6.327-.583c20.073 0 36.364 16.33 36.364 36.451C148 127.67 131.71 144 111.636 144c-13.454 0-25.236-7.363-31.49-18.226h19.418a21.615 21.615 0 0 0 12.072 3.645c12 0 21.819-9.842 21.819-21.87 0-12.03-9.819-21.872-21.819-21.872z" fill="#0D6EFD" fill-rule="nonzero"/><path d="M39 80.333c14.72 0 26.667 11.947 26.667 26.667 0 14.72-11.947 26.667-26.667 26.667-14.72 0-26.667-11.947-26.667-26.667 0-14.72 11.947-26.667 26.667-26.667zM26.285 110.92h12l-5.424-5.424c2.184-2.544 5.4-4.176 9.024-4.176 5.688 0 10.44 3.984 11.664 9.312l2.304-.768c-1.536-6.288-7.2-10.944-13.968-10.944-4.272 0-8.088 1.896-10.728 4.872l-4.872-4.872v12z" fill="#0D6EFD" fill-rule="nonzero" stroke="#FFF" stroke-width="4"/></g></svg>