<svg width="150" height="150" xmlns="http://www.w3.org/2000/svg"><g fill="none" fill-rule="evenodd"><path d="M0 0L150 0 150 150 0 150z"/><path d="M146.929 57.105c0-5.153-2.646-9.663-6.721-12.168L75.5 7 10.793 44.937A14.255 14.255 0 0 0 4 57.105v71.58C4 136.557 10.435 143 18.3 143h114.4c7.865 0 14.3-6.442 14.3-14.316l-.071-71.579zm-14.3 0v.072L75.5 92.895l-57.2-35.79 57.2-33.499 57.129 33.5zM18.3 128.685v-54.83l57.2 35.932 57.129-35.718.071 54.615H18.3z" fill="#0D6EFD" fill-rule="nonzero"/><text font-family="OpenSans-SemiBold, Open Sans" font-size="18" font-weight="500" letter-spacing=".4" fill="#0D6EFD"><tspan x="38" y="64">H/A/R/O</tspan></text></g></svg>