<svg xmlns="http://www.w3.org/2000/svg" width="17" height="17" viewBox="0 0 17 17">
  <path id="arrow-up-right-from-square-solid" d="M10.625,0a1.063,1.063,0,0,0,0,2.125h2.746L6.687,8.812a1.064,1.064,0,0,0,1.5,1.5l6.684-6.687V6.375a1.063,1.063,0,0,0,2.125,0V1.063A1.061,1.061,0,0,0,15.938,0ZM2.656,1.063A2.656,2.656,0,0,0,0,3.719V14.344A2.656,2.656,0,0,0,2.656,17H13.281a2.656,2.656,0,0,0,2.656-2.656V10.625a1.063,1.063,0,0,0-2.125,0v3.719a.533.533,0,0,1-.531.531H2.656a.533.533,0,0,1-.531-.531V3.719a.533.533,0,0,1,.531-.531H6.375a1.063,1.063,0,0,0,0-2.125Z" fill="#333"/>
</svg>
