<svg width="150" height="150" xmlns="http://www.w3.org/2000/svg"><path d="M17.647 150c-4.853 0-9.007-1.728-12.463-5.184C1.728 141.36 0 137.206 0 132.353c0-4.853 1.728-9.007 5.184-12.463 3.456-3.456 7.61-5.184 12.463-5.184 4.853 0 9.007 1.728 12.463 5.184 3.456 3.456 5.184 7.61 5.184 12.463 0 4.853-1.728 9.007-5.184 12.463C26.654 148.272 22.5 150 17.647 150zm105.882 0c0-17.206-3.235-33.272-9.705-48.199-6.471-14.926-15.295-27.977-26.471-39.154-11.177-11.176-24.228-20-39.154-26.47C33.272 29.705 17.206 26.47 0 26.47V0c20.882 0 40.368 3.897 58.456 11.691 18.088 7.794 33.97 18.53 47.647 32.206 13.676 13.677 24.412 29.559 32.206 47.647C146.103 109.632 150 129.118 150 150h-26.47zm-52.94 0c0-9.853-1.839-19.007-5.515-27.463-3.677-8.456-8.75-15.92-15.221-22.39-6.47-6.47-13.934-11.544-22.39-15.22C19.007 81.25 9.853 79.411 0 79.411v-26.47c13.53 0 26.14 2.536 37.83 7.61 11.692 5.073 21.95 12.022 30.773 20.845 8.823 8.824 15.772 19.08 20.846 30.772 5.073 11.691 7.61 24.302 7.61 37.831h-26.47z" fill="#0D6EFD"/></svg>