<svg width="150" height="150" xmlns="http://www.w3.org/2000/svg"><g fill="none" fill-rule="evenodd"><path d="M0 0H150V150H0z"/><g transform="translate(1 1)" fill="#0D6EFD" fill-rule="nonzero"><path d="M135.556 0H12.444C3.4 0 0 3.4 0 12.444v123.112C0 144.6 3.4 148 12.444 148h123.112C144.6 148 148 144.6 148 135.556V12.444C148 3.4 144.6 0 135.556 0zm-2 138.444h-119a5 5 0 0 1-5-5v-119a5 5 0 0 1 5-5h119a5 5 0 0 1 5 5v119a5 5 0 0 1-5 5z"/><path d="M25.627 39.48H66.08V49.306999999999995H25.627z"/><path d="M84.88 104.586667L125.333333 104.586667 125.333333 113.413333 84.88 113.413333z"/><path d="M84.88 89.8666667L125.333333 89.8666667 125.333333 98.6933333 84.88 98.6933333z"/><path d="M41.1709091 124.333333L49.5490909 124.333333 49.5490909 105.829091 68.0533333 105.829091 68.0533333 97.4509091 49.5490909 97.4509091 49.5490909 78.9466667 41.1709091 78.9466667 41.1709091 97.4509091 22.6666667 97.4509091 22.6666667 105.829091 41.1709091 105.829091z"/><path d="M92.5602699 63.12L105.106667 50.5969293 117.653063 63.12 124.333333 56.457266 111.786937 43.8524714 124.333333 31.3294007 117.653063 24.6666667 105.106667 37.1897374 92.5602699 24.6666667 85.88 31.3294007 98.4263968 43.8524714 85.88 56.457266z"/></g></g></svg>