<svg height="765" viewBox="0 0 1084 765" width="1084" xmlns="http://www.w3.org/2000/svg"><g fill="none" fill-rule="evenodd" transform="translate(1 1)"><g transform="translate(374 157)"><path d="m564.2 413.6h-553.4c-5.5 0-10-4.5-10-10v-392.9c0-5.5 4.5-10 10-10h553.4c5.5 0 10 4.5 10 10v392.9c0 5.5-4.5 10-10 10z" fill="#fff" fill-rule="nonzero"/><g stroke-linecap="round" stroke-linejoin="round" stroke-width="2"><path d="m.8 10.7c0-5.5 4.5-10 10-10h82" stroke="#2084fb"/><path d="m446.5 413.6h-435.7c-5.5 0-10-4.5-10-10v-365.2" stroke="#2084fb"/><path d="m574.2 354.1v49.5c0 5.5-4.5 10-10 10h-92.2" stroke="#2084fb"/><path d="m574.2 243.1v87.5" stroke="#2084fb"/><path d="m574.2 59.1v163.3" stroke="#2084fb"/><path d="m119.8.7h444.4c5.5 0 10 4.5 10 10v26.7" stroke="#2084fb"/><path d="m404.5 272h57.7" stroke="#2084fb"/><path d="m404.5 298.7h127" stroke="#2084fb"/><path d="m404.5 325.5h96.2" stroke="#2084fb"/><path d="m404.5 352.2h115" stroke="#2084fb"/><path d="m404.5 379h49.1" stroke="#2084fb"/><path d="m596.8 230.9h-363.9c-5.5 0-10-4.5-10-10v-159c0-5.5 4.5-10 10-10h363.9c5.5 0 10 4.5 10 10v159c0 5.6-4.5 10-10 10z" fill="#fff" fill-rule="nonzero" stroke="#2084fb"/><path d="m278.8 186.8s20.2-20 48.7-47.3c22-21.2 37.3-16.7 70 33.3 24.3 37.2 52 33.9 80-6.3 29-41.7 62-104 96.7-54.7" stroke="#13b85b"/><path d="m280.1 129.1s27.3 34 42 50 32.7 13.3 67.3-45.3c34.7-58.7 42.7-75.3 73.3-27.3 30.7 48 56.7 101.3 109.3 59.3" stroke="#fe835b"/></g><path d="m112.4 206.1h-69.5c-3.7 0-6.7-3-6.7-6.7 0-3.7 3-6.7 6.7-6.7h69.5c3.7 0 6.7 3 6.7 6.7 0 3.7-3 6.7-6.7 6.7z" fill="#d1e5fd" fill-rule="nonzero"/><path d="m184.8 231.9h-142c-3.7 0-6.7-3-6.7-6.7 0-3.7 3-6.7 6.7-6.7h142c3.7 0 6.7 3 6.7 6.7 0 3.8-3 6.7-6.7 6.7z" fill="#d1e5fd" fill-rule="nonzero"/><g fill-rule="nonzero" transform="translate(38 51)"><path d="m96.4 119.6h-95.7v-119.2h68.8l26.9 26.9z" fill="#183d69"/><path d="m96.4 119.6h-95.7v-119.2h68.8v26.9h26.9z" fill="#fe835b"/><g fill="#fff"><path d="m76.4 85.5-17.5-30.4c-.4-.6-1.3-.6-1.6 0l-13.1 22.7-7.7-13.3c-.4-.6-1.3-.6-1.6 0l-12.1 21c-.4.6.1 1.4.8 1.4h17 7.2 27.9c.6 0 1-.8.7-1.4z"/><circle cx="41.3" cy="52.8" r="3.7"/></g></g><path d="m176.5 270.9h-129.8c-5.5 0-10 4.5-10 10v90c0 5.5 4.5 10 10 10h129.8c5.5 0 10-4.5 10-10v-90c0-5.5-4.5-10-10-10z" fill="#d1e5fd" fill-rule="nonzero"/><g fill-rule="nonzero" stroke="#2084fb" stroke-linecap="round" stroke-linejoin="round" stroke-width="2" transform="translate(67 295)"><path d="m84.7 60.2h-81.6c-1.3 0-2.4-1.1-2.4-2.4v-54.6c0-1.3 1.1-2.4 2.4-2.4h81.6c1.3 0 2.4 1.1 2.4 2.4v54.6c.1 1.3-1 2.4-2.4 2.4z" fill="#fff"/><path d="m43.9 25.8-43.3 32.2c0 1.3 1.1 2.4 2.4 2.4h81.6c1.3 0 2.4-1.1 2.4-2.4z" fill="#fff"/><path d="m43.9 35.4-43.3-32.1c0-1.3 1.1-2.4 2.4-2.4h81.6c1.3 0 2.4 1.1 2.4 2.4z" fill="#d1e5fd"/></g><path d="m361.5 270.9h-129.8c-5.5 0-10 4.5-10 10v90c0 5.5 4.5 10 10 10h129.8c5.5 0 10-4.5 10-10v-90c0-5.5-4.5-10-10-10z" style="stroke:#2084fb;stroke-width:2;fill:#fff;fill-rule:nonzero;stroke-linecap:round;stroke-linejoin:round"/><path d="m295.5 289.2c-19.9 0-36 16.1-36 36s16.1 36 36 36 36-16.1 36-36v-.1c-.1-19.8-16.1-35.9-36-35.9zm20.3 36c0 11.2-9.1 20.3-20.3 20.3s-20.3-9.1-20.3-20.3 9.1-20.3 20.3-20.3 20.2 9.1 20.3 20.3z" fill="#d1e5fd" fill-rule="nonzero"/><path d="m331.5 325.1h-15.7c-.1-11.2-9.1-20.2-20.3-20.2v-15.7c19.9 0 35.9 16.1 36 35.9z" fill="#fe835b" fill-rule="nonzero"/></g><g transform="translate(279)"><path d="m185.6 180.4h-175.1c-5.5 0-10-4.5-10-10v-159.5c0-5.5 4.5-10 10-10h175.1c5.5 0 10 4.5 10 10v159.5c0 5.5-4.5 10-10 10z" style="stroke:#2084fb;stroke-width:2;fill:#fff;fill-rule:nonzero;stroke-linecap:round;stroke-linejoin:round"/><path d="m132.5 47.2c-3.3 0-6.5.6-9.5 1.8-6.1-11.2-18.1-18.8-31.8-18.8-17.5.1-32.1 12.7-35.2 29.4-10.6 1.4-18.8 10.5-18.8 21.5.1 11.9 9.8 21.5 21.6 21.4l74-.4c15.1-.1 27.3-12.4 27.20061-27.5-.10061-15.3-12.40061-27.5-27.50061-27.4z" fill="#d1e5fd" fill-rule="nonzero"/><g stroke="#2084fb" stroke-linecap="round" stroke-linejoin="round" stroke-width="2"><path d="m40.6 129h57.1"/><path d="m40.6 153.1h90.3"/><path d="m40.6 141.3h114.9"/></g></g><g transform="translate(111 364)"><g fill-rule="nonzero"><path d="m128.7 137.4s-2.2-23.5-3-31-3-23.4-36.5-25l12.5 56.8z" fill="#2084fb"/><path d="m79.9 352.7-8.7 27.2-29.3-.1 9-31.6z" fill="#fff" stroke="#153b69" stroke-linecap="round" stroke-linejoin="round" stroke-width="2"/><path d="m41.1 377.7 31.9-2.6s30.1 12.6 33.5 18.8c2.7 5-45.7 3.8-63 3.1-3.2-.1-5.5-3-4.9-6.1z" fill="#183d69"/><path d="m158.4 352.7-.7 27.2-29.3-.1 1-31.6z" fill="#fff" stroke="#153b69" stroke-linecap="round" stroke-linejoin="round" stroke-width="2"/><path d="m69.6 193 39.1 7.2s37.9 7.4 54.6 33.4c.3.4.6.8.9 1.3 2 3 3.6 6.7 4.8 10.9.1.3.2.7.3 1 .3 1.1.6 2.2.8 3.4 8.5 39.1-7.3 113.1-7.3 113.1l-41.6.6.7-102-52-44.3z" fill="#183d69"/><path d="m127.6 377.7 31.9-2.6s30.1 12.6 33.5 18.8c2.7 5-45.7 3.8-63 3.1-3.2-.1-5.5-3-4.9-6.1z" fill="#183d69"/><path d="m8.9 228.2 2.9-38s77.2-3.8 103.8 41c17.1 24.1-31.3 132.1-31.3 132.1l-42.6-5.4 25-96h-26.4c-18.3.1-32.8-15.5-31.4-33.7z" fill="#183d69"/><path d="m117.8 108-9.1 92.2c-68.3 15.5-96.8-10-96.8-10l6.3-87.4c.7-13.8 12.4-24.4 26.2-23.7l11.5.5 34.2 1.7 4.5.4c13.5 1 23.8 12.7 23.2 26.3z" fill="#2084fb"/></g><path d="m117.8 108-4.1 41.1" stroke="#fff" stroke-linecap="round" stroke-linejoin="round" stroke-width="2"/><path d="m113.1 37.5s13.3-6.6 4-23.1c-10.4-18.5-45.3-18.6-54.8-1-10.1 18.6-5.2 40.3 1.1 43.3z" fill="#183d69" fill-rule="nonzero"/><path d="m113.4 26.5-42.7-6.6-3.5 17.8c-1.5-1.7-3.7-3.3-6.5-2.8-5.2 1-8.6 15.3 4.2 14.5l-6.9 30.6s-7.1 4.9 3.4 13.3c9.2 7.4 38 6.7 27.9-11.8l.8-9.1c8.8 0 15-6.3 17-11.6 4.7-12.8 6.3-34.3 6.3-34.3z" style="stroke:#153b69;stroke-width:2;fill:#fff;fill-rule:nonzero;stroke-linecap:round;stroke-linejoin:round"/><path d="m113.4 26.5s-1.6 21.4-6.4 34.2c-2 5.2-6.3 9.5-12.1 11.1 0 0-10.1 2.2-18.4-3.4" stroke="#153b69" stroke-linecap="round" stroke-linejoin="round" stroke-width="2"/><path d="m116.7 188c-6.5-.6-15.4-1.4-15.4-1.4s12.7-1.7 16.4-2.5c4.7-1.1 6.5-5.9-.8-5.2-5.4.5-17.3.8-23.2.9.7-.9 7.4-9.5 4.9-11.9-1.7-1.6-3.5.4-3.5.4s-13.1 13.7-13.2 13.7l-44.6-17.4 8.7-30.9-35.7-9.3s-3.7 15.3-7.5 32c-4.8 20.8-5 25.2 27.7 32.4 6.8 1.5 63.2 14.2 63.2 14.2 4.6 1.1 10.2 2.4 12.5 2.8 3.3.6 4.6-3 .9-4.3-4.3-1.5-10.4-3.5-10.4-3.5s10.2 1.7 15 2.1c3.5.3 5-3.8.3-4.8-6.6-1.3-13.6-2.6-13.6-2.6s12.1.4 17.4.7c4.8.4 7.3-4.9.9-5.4z" style="stroke:#153b69;stroke-width:2;fill:#fff;fill-rule:nonzero;stroke-linecap:round;stroke-linejoin:round"/><path d="m55.9 108.1s-5.2 21.4-9.6 37.8c-1.9 7.2-12.5 4.4-22.5 2-14.7-3.5-20.6-7.5-19.3-14.4 2-10.1 9.7-37 9.7-37z" fill="#2084fb" fill-rule="nonzero"/><path d="m50.6 129.8c-1.6 6.5-2.5 9.6-4.3 16.1-1.9 7.2-12.5 4.4-22.5 2" stroke="#fff" stroke-linecap="round" stroke-linejoin="round" stroke-width="2"/><path d="m14.3 96.5s4.7-18.5 30.1-17.3l-26.2 23.7z" fill="#2084fb" fill-rule="nonzero"/><path d="m115.6 231.2c4.1 5.8 4.5 16.5 2.5 29.5" stroke="#fff" stroke-linecap="round" stroke-linejoin="round" stroke-width="2"/><path d="m76.6 206.1h100.1l18-77.7h-100.2z" fill="#fe835b" fill-rule="nonzero"/><path d="m30.6629 201.4868h100.2v4.6h-100.2z" fill="#fe835b" fill-rule="nonzero" transform="matrix(-1 0 0 -1 161.5258 407.5736)"/><path d="m112.7 27.3s-14.7 10.4-43.9 1.8l.5-12z" fill="#183d69" fill-rule="nonzero"/></g><path d="m1081.5 762.3-771-.9v-136l-214 1v135.9h-96" stroke="#183d69" stroke-linecap="round" stroke-linejoin="round" stroke-width="2"/><g transform="translate(469 604)"><g stroke="#13b85b" stroke-width="2"><path d="m102 110.5s-7-72.5 67.7-73" stroke-linecap="round" stroke-linejoin="round"/><path d="m109 72.5s-8.2-21 2.5-32 3.2 10.5 19.2-6.2 12.5-2 30.5-6.5 19.5 8.1 35.2 9.5c0 0-3.5 18-25 13.5-12-2.5-12.5 8-23.5 11.2-19.6 5.8-8.8 14.2-22.2 12.8s-16.7-2.3-16.7-2.3z"/><path d="m97 110.5s-11-87-70-96" stroke-linecap="round" stroke-linejoin="round"/><path d="m87.8 75.1s10.1-38.1-.9-49.6-4.5 7-19-7-25-21.5-31.5-17-22.5-4-36 7c0 0 13.2 5.5 17.2 14.5s9.5 17 19 17.8c7.8.6 7 17.2 19 18.8 14.5 1.7 18.2 16.5 32.2 15.5z" stroke-linecap="round" stroke-linejoin="round"/></g><path d="m129.9 98.9v39.6c0 11.1-9 20-20 20h-18.6c-11 0-20-8.9-20-20v-39.6z" fill="#183d69" fill-rule="nonzero"/><path d="m129.9 120v2.8l-8.1-8.1-10.2 10.2c-.4.4-1 .4-1.4 0l-10.1-10.1-10.5 10.5c-.2.2-.5.3-.7.3s-.5-.1-.7-.3l-10.6-10.6-6.3 6.3v-2.8l5.6-5.6c.4-.4 1-.4 1.4 0l10.6 10.6 10.5-10.5c.4-.4 1-.4 1.4 0l10.1 10.1 10.2-10.2c.4-.4 1-.4 1.4 0z" fill="#fff" fill-rule="nonzero"/><path d="m129.9 133v2.8l-8.1-8.1-10.2 10.2c-.4.4-1 .4-1.4 0l-10.1-10.1-10.5 10.5c-.2.2-.5.3-.7.3s-.5-.1-.7-.3l-10.6-10.6-6.3 6.3v-2.8l5.6-5.6c.4-.4 1-.4 1.4 0l10.6 10.6 10.5-10.5c.4-.4 1-.4 1.4 0l10.1 10.1 10.2-10.2c.4-.4 1-.4 1.4 0z" fill="#fff" fill-rule="nonzero"/></g><g transform="translate(613 34)"><circle cx="27.8" cy="27.2" fill="#13b85b" fill-rule="nonzero" r="27.2"/><path d="m18.6 26.4 7.3 7.3 11.1-12.9" stroke="#fff" stroke-linecap="round" stroke-linejoin="round" stroke-width="6"/></g><g stroke="#2084fb" stroke-linecap="round" stroke-linejoin="round" stroke-width="2"><path d="m497 59.1h4"/><path d="m509.5 59.1h81.2" stroke-dasharray="8.5455 8.5455"/><path d="m595 59.1h4"/></g><g stroke="#2084fb" stroke-linecap="round" stroke-linejoin="round" stroke-width="2"><path d="m639.5 137.4v-4"/><path d="m639.5 124.4v-13.4" stroke-dasharray="8.9444 8.9444"/><path d="m639.5 106.6v-4"/></g><g transform="translate(276 291)"><circle cx="27.5" cy="27.4" fill="#13b85b" fill-rule="nonzero" r="27.2"/><g stroke="#fff" stroke-linecap="round" stroke-linejoin="round" stroke-width="6"><path d="m27.5 36.9v-16.7"/><path d="m34.8 23.3-7.3-6-7.3 6"/></g></g><path d="m303.5 203.4v71" stroke="#2084fb" stroke-dasharray="8" stroke-linecap="round" stroke-linejoin="round" stroke-width="2"/><path d="m303.5 360.9v51c0 5.5-4.5 10-10 10h-16c-5.5 0-10 4.5-10 10v43.2" stroke="#2084fb" stroke-dasharray="8" stroke-linecap="round" stroke-linejoin="round" stroke-width="2"/><g fill-rule="nonzero" transform="translate(819 502)"><path d="m245.5 97.8h-9.6c-2-6.3-4.5-12.4-7.6-18.2l6.8-6.8c6-6 6-15.7 0-21.7l-24.9-24.9c-6-6-15.7-6-21.7 0l-6.8 6.8c-5.8-3-11.9-5.6-18.2-7.6v-9.6c0-8.5-6.9-15.3-15.3-15.3h-35.3c-8.5 0-15.3 6.9-15.3 15.3v9.6c-6.3 2-12.4 4.5-18.2 7.6l-6.8-6.8c-6-6-15.7-6-21.7 0l-24.9 24.9c-6 6-6 15.7 0 21.7l6.8 6.8c-3 5.8-5.6 11.9-7.6 18.2h-9.6c-8.5 0-15.3 6.9-15.3 15.3v35.3c0 8.5 6.9 15.3 15.3 15.3h9.6c2 6.3 4.5 12.4 7.6 18.2l-6.8 6.8c-6 6-6 15.7 0 21.7l24.9 24.9c6 6 15.7 6 21.7 0l6.8-6.8c5.8 3 11.9 5.6 18.2 7.6v9.6c0 8.5 6.9 15.3 15.3 15.3h35.3c8.5 0 15.3-6.9 15.3-15.3v-9.6c6.3-2 12.4-4.5 18.2-7.6l6.8 6.8c6 6 15.7 6 21.7 0l24.9-24.9c6-6 6-15.7 0-21.7l-6.8-6.8c3-5.8 5.6-11.9 7.6-18.2h9.6c8.5 0 15.3-6.9 15.3-15.3v-35.3c0-8.5-6.9-15.3-15.3-15.3zm-115.1 86.2c-29.4 0-53.2-23.8-53.2-53.2s23.8-53.2 53.2-53.2 53.200313 23.8 53.200313 53.2c.099687 29.3-23.800313 53.2-53.200313 53.2z" fill="#d1e5fd"/><path d="m130.4 68.7c-34.2 0-62 27.8-62 62s27.8 62 62 62 62-27.8 62-62-27.7-62-62-62zm0 112.8c-28 0-50.7-22.7-50.7-50.7s22.7-50.7 50.7-50.7 50.7 22.7 50.7 50.7-22.6 50.7-50.7 50.7z" fill="#2084fb"/></g></g></svg>