<svg width="150" height="150" xmlns="http://www.w3.org/2000/svg"><path d="M75 150c-10.375 0-20.125-1.969-29.25-5.906-9.125-3.938-17.063-9.281-23.813-16.031-6.75-6.75-12.093-14.688-16.03-23.813C1.968 95.125 0 85.375 0 75s1.969-20.125 5.906-29.25c3.938-9.125 9.282-17.063 16.032-23.813S36.624 9.845 45.75 5.907C54.875 1.968 64.625 0 75 0h7.5v62.063c2.25 1.374 4.063 3.156 5.438 5.343C89.311 69.594 90 72.125 90 75c0 4.125-1.469 7.656-4.406 10.594C82.656 88.53 79.125 90 75 90c-4.125 0-7.656-1.469-10.594-4.406C61.47 82.656 60 79.125 60 75c0-2.875.688-5.438 2.063-7.688 1.374-2.25 3.187-4 5.437-5.25V45.939c-6.5 1.75-11.875 5.28-16.125 10.593S45 68 45 75c0 8.25 2.938 15.313 8.813 21.188C59.687 102.061 66.75 105 75 105c8.25 0 15.313-2.938 21.188-8.813C102.061 90.314 105 83.25 105 75c0-4.5-.906-8.656-2.719-12.469A32.438 32.438 0 0 0 94.875 52.5l10.688-10.688c4.374 4.126 7.874 9.032 10.5 14.72C118.686 62.218 120 68.374 120 75c0 12.5-4.375 23.125-13.125 31.875S87.5 120 75 120s-23.125-4.375-31.875-13.125S30 87.5 30 75c0-11.25 3.563-21.031 10.688-29.344C47.812 37.344 56.75 32.313 67.5 30.563V15.374c-14.875 1.875-27.344 8.438-37.406 19.688C20.03 46.313 15 59.624 15 75c0 16.75 5.813 30.938 17.438 42.563C44.062 129.186 58.25 135 75 135c16.75 0 30.938-5.813 42.563-17.438C129.186 105.939 135 91.75 135 75c0-8.625-1.688-16.688-5.063-24.188s-8-14-13.875-19.5l10.688-10.687c7.125 6.875 12.781 14.969 16.969 24.281C147.906 54.22 150 64.25 150 75c0 10.375-1.969 20.125-5.906 29.25-3.938 9.125-9.281 17.063-16.031 23.813-6.75 6.75-14.688 12.093-23.813 16.03C95.125 148.032 85.375 150 75 150z" fill="#0D6EFD"/></svg>