<svg width="150" height="150" xmlns="http://www.w3.org/2000/svg"><g fill="none" fill-rule="evenodd"><path d="M0 0H150V150H0z"/><g transform="translate(7 4)" fill="#0D6EFD" fill-rule="nonzero"><path d="M123.333 19.7H116.5V6h-13.667v13.7H48.167V6H34.5v13.7h-6.833c-7.585 0-13.599 6.165-13.599 13.7L14 129.3c0 7.535 6.082 13.7 13.667 13.7h95.666c7.517 0 13.667-6.165 13.667-13.7V33.4c0-7.535-6.15-13.7-13.667-13.7zm0 109.6H27.667V60.8h95.666v68.5zm0-82.2H27.667V33.4h95.666v13.7zM55 88.2H41.333V74.5H55v13.7zm27.333 0H68.667V74.5h13.666v13.7zm27.334 0H96V74.5h13.667v13.7zM55 115.6H41.333v-13.7H55v13.7zm27.333 0H68.667v-13.7h13.666v13.7zm27.334 0H96v-13.7h13.667v13.7z"/><path d="M37.5 0C16.875 0 0 16.875 0 37.5S16.875 75 37.5 75 75 58.125 75 37.5 58.125 0 37.5 0zm16.853 53.25l-19.5-12v-22.5h3.42v20.777L56.25 50.581l-1.897 2.669z" stroke="#FFF" stroke-width="4"/></g></g></svg>