<svg width="150" height="150" xmlns="http://www.w3.org/2000/svg"><g fill="none" fill-rule="evenodd"><path d="M0 0L150 0 150 150 0 150z"/><g transform="translate(0 3)" fill="#0D6EFD" fill-rule="nonzero"><path d="M131.16 87.783c6.39-32.867-15.081-64.698-47.948-71.087L87.068 0 55.474 18.167l21.212 28.83 3.955-17.075c25.593 4.975 42.268 29.698 37.294 55.29-4.975 25.593-29.698 42.268-55.29 37.294-25.593-4.975-42.269-29.698-37.294-55.29.98-5.039 4.124-13.568 10.353-20.219 6.229-6.65 13.536-12.318 19.77-15.407l-7.213-10.535c-6.325 3.709-16.271 10.837-22.91 17.572-8.719 8.845-11.721 18.276-13.226 26.018-6.389 32.867 15.082 64.698 47.949 71.087 32.867 6.389 64.698-15.082 71.087-47.949z"/><path d="M72 48.19c-15.824 0-28.667 12.843-28.667 28.667 0 15.824 12.843 28.667 28.667 28.667 15.824 0 28.667-12.843 28.667-28.667 0-15.824-12.843-28.667-28.667-28.667zm0 51c-12.311 0-22.333-10.022-22.333-22.333 0-12.311 10.022-22.333 22.333-22.333 12.311 0 22.333 10.022 22.333 22.333C94.333 89.168 84.311 99.19 72 99.19zm12.24-34.12L66.667 82.644l-6.907-6.88-3.76 3.76L66.667 90.19 88 68.857l-3.76-3.787z"/><path transform="translate(0 118.857)" d="M150 13L125.979843 -1.98596695e-12 125.979843 7.86564133 0 7.86564133 0 17.697693 125.979843 17.697693 125.979843 26z"/></g></g></svg>