<svg width="80" height="80" xmlns="http://www.w3.org/2000/svg"><g fill="none" fill-rule="evenodd"><g transform="translate(4)"><rect stroke="#0D6EFD" stroke-width="5" x="8.038" y="2.5" width="56.538" height="75" rx="3"/><rect stroke="#0D6EFD" stroke-width="3" fill="#0D6EFD" x="1.5" y="40.269" width="69.615" height="29" rx="3"/><g transform="translate(17.846 6.77)" fill="#0D6EFD" fill-rule="nonzero"><path d="M1.385 15.385a1.383 1.383 0 0 1-.979-2.363l8.307-8.308a1.383 1.383 0 0 1 1.958 0 1.383 1.383 0 0 1 0 1.958l-8.307 8.307a1.38 1.38 0 0 1-.98.406z"/><path d="M9.692 24a1.38 1.38 0 0 1-.979-.406L.406 15.287a1.383 1.383 0 0 1 0-1.958 1.383 1.383 0 0 1 1.958 0l8.307 8.308A1.383 1.383 0 0 1 9.692 24zm17.539 0a1.383 1.383 0 0 1-.979-2.363l8.307-8.308a1.383 1.383 0 0 1 1.958 0 1.383 1.383 0 0 1 0 1.958l-8.307 8.307a1.38 1.38 0 0 1-.979.406z"/><path d="M35.538 15.385a1.38 1.38 0 0 1-.979-.406l-8.307-8.307a1.383 1.383 0 0 1 0-1.958 1.383 1.383 0 0 1 1.958 0l8.307 8.307a1.383 1.383 0 0 1-.979 2.364zm-21.23 12.307a1.32 1.32 0 0 1-.46-.084c-.722-.268-1.1-1.1-.845-1.86L21.309.973c.257-.76 1.043-1.158 1.767-.889.721.268 1.1 1.1.845 1.86l-8.307 24.775c-.201.6-.735.973-1.306.973z"/></g><path d="M15.193 62.85l3.718-5.776 3.648 5.776h4.373l-5.823-8.722 5.355-7.974h-4.022l-3.39 5.332-3.275-5.332h-4.256l5.379 7.95-5.823 8.746h4.116zm16.65 0V51.135h.046l4.093 11.715h2.83l4.091-11.832h.047V62.85h3.438V46.154H41.22l-3.695 11.482h-.047l-3.905-11.482h-5.168V62.85h3.437zm29.581 0v-3.086h-8.138v-13.61h-3.671V62.85h11.809z" fill="#FFF" fill-rule="nonzero"/></g><path d="M0 0H80V80H0z"/></g></svg>