<svg width="150" height="150" xmlns="http://www.w3.org/2000/svg"><g fill="none" fill-rule="evenodd"><path d="M0 0L150 0 150 150 0 150z"/><g transform="translate(4 7)" fill="#0D6EFD" fill-rule="nonzero"><path d="M142.929 50.105c0-5.153-2.646-9.663-6.721-12.168L71.5 0 6.793 37.937A14.255 14.255 0 0 0 0 50.105v71.58C0 129.557 6.435 136 14.3 136h114.4c7.865 0 14.3-6.442 14.3-14.316l-.071-71.579zm-14.3 0v.072L71.5 85.895l-57.2-35.79 57.2-33.499 57.129 33.5zM14.3 121.685v-54.83l57.2 35.932 57.129-35.718.071 54.615H14.3z"/><path d="M83.071 39.944L80.1 37 66.738 50.238l2.972 2.944L83.07 39.944zM92.007 37L69.71 59.091l-8.81-8.707-2.971 2.944L69.709 65 95 39.944 92.007 37zM46 53.328L57.781 65l2.972-2.944-11.76-11.672L46 53.328z"/></g></g></svg>