<svg width="150" height="150" xmlns="http://www.w3.org/2000/svg"><g fill="none" fill-rule="evenodd"><path d="M0 0H150V150H0z"/><g transform="translate(1 1)" fill="#0D6EFD" fill-rule="nonzero"><path d="M102.4375 0L102.4375 18.625 131.375 18.625 131.375 130.375 102.4375 130.375 102.4375 149 149 149 149 0z"/><path d="M0 149L46.5625 149 46.5625 130.375 17.625 130.375 17.625 18.625 46.5625 18.625 46.5625 0 0 0z"/><path d="M79.198 61.587h7.41v29.8h-7.41V78.97h-9.88v12.417h-7.41v-29.8h7.41v9.933h9.88v-9.933zM54.5 69.037v4.966c0 3.974-3.458 7.45-7.41 7.45h-9.88v9.934H29.8v-29.8h17.29c3.951 0 7.41 3.476 7.41 7.45zm-7.41 0h-9.88v4.966h9.88v-4.966zm74.098 0v4.966c0 3.974-3.458 7.45-7.41 7.45h-9.88v9.934h-7.41v-29.8h17.29c3.952 0 7.41 3.476 7.41 7.45zm-7.41 0h-9.88v4.966h9.88v-4.966z"/></g></g></svg>