<svg width="150" height="150" xmlns="http://www.w3.org/2000/svg"><g fill="none" fill-rule="evenodd"><path d="M0 0H150V150H0z"/><g transform="translate(1 9)" fill="#0D6EFD" fill-rule="nonzero"><path d="M149 83.5c0-4.675-3.75-8.5-8.333-8.5H124v17h16.667c4.583 0 8.333-3.825 8.333-8.5zm-8.333 24.5H124v17h16.667c4.583 0 8.333-3.825 8.333-8.5s-3.75-8.5-8.333-8.5zM74.57 82.75H58v33.5h16.571c0 9.213 7.458 16.75 16.572 16.75H116V66H91.143c-9.114 0-16.572 7.537-16.572 16.75z"/><path d="M16.667 74.77c0-9.14 7.5-16.616 16.666-16.616h12.5C61.917 58.154 75 45.11 75 29.077 75 13.043 61.917 0 45.833 0H16.667c-4.584 0-8.334 3.738-8.334 8.308 0 4.569 3.75 8.307 8.334 8.307h29.166c6.917 0 12.5 5.567 12.5 12.462s-5.583 12.461-12.5 12.461h-12.5C14.917 41.538 0 56.41 0 74.77S14.917 108 33.333 108H50V91.385H33.333c-9.166 0-16.666-7.477-16.666-16.616z"/></g></g></svg>