<svg width="80" height="80" xmlns="http://www.w3.org/2000/svg"><g fill="none" fill-rule="evenodd"><g transform="translate(4)"><rect stroke="#0D6EFD" stroke-width="5" x="8.5" y="2.5" width="57" height="75" rx="3"/><rect stroke="#0D6EFD" stroke-width="3" fill="#0D6EFD" x="1.5" y="40.5" width="70" height="29" rx="3"/><g transform="translate(15 12)" stroke="#0D6EFD" stroke-linecap="round" stroke-width="3"><path d="M1.222 0.303L42.778 0.303"/><path d="M1.222 10L42.778 10"/><path d="M1.222 19.697L42.778 19.697"/><path d="M0.611 19.697L0.611 0.303"/><path d="M12.833 19.697L12.833 0.303"/><path d="M25.056 19.697L25.056 0.303"/><path d="M43.389 19.697L43.389 0.303"/></g><path d="M21.937 63c.995 0 1.907-.152 2.736-.455a6.337 6.337 0 0 0 2.171-1.32 6.594 6.594 0 0 0 1.493-2.094c.377-.82.61-1.737.7-2.753h-3.436c-.136 1.092-.51 1.972-1.12 2.64-.61.667-1.458 1-2.544 1-.799 0-1.477-.155-2.035-.466a3.892 3.892 0 0 1-1.357-1.24 5.399 5.399 0 0 1-.757-1.741 8.322 8.322 0 0 1-.238-1.991c0-.713.08-1.404.238-2.071.158-.668.41-1.263.757-1.787.347-.523.8-.94 1.357-1.251.558-.311 1.236-.467 2.035-.467a3.67 3.67 0 0 1 3.12 1.718c.212.342.348.717.408 1.127h3.437c-.106-.94-.362-1.775-.769-2.504a6.078 6.078 0 0 0-1.549-1.832 6.811 6.811 0 0 0-2.125-1.126A8.088 8.088 0 0 0 21.937 46c-1.236 0-2.348.22-3.335.66a7.136 7.136 0 0 0-2.499 1.82 8.13 8.13 0 0 0-1.56 2.72C14.18 52.24 14 53.366 14 54.58c0 1.183.18 2.287.543 3.31a7.92 7.92 0 0 0 1.56 2.675 7.148 7.148 0 0 0 2.499 1.786c.987.433 2.099.649 3.335.649zm15.377 0c1.1 0 2.07-.129 2.906-.387.837-.258 1.538-.618 2.103-1.08a4.495 4.495 0 0 0 1.278-1.65c.286-.638.43-1.328.43-2.072 0-.91-.193-1.657-.577-2.241a4.833 4.833 0 0 0-1.369-1.4 5.997 5.997 0 0 0-1.594-.762 15.29 15.29 0 0 0-1.255-.33 247.78 247.78 0 0 1-2.453-.638c-.626-.166-1.116-.333-1.47-.5-.354-.167-.592-.35-.712-.546-.121-.198-.181-.456-.181-.774 0-.35.075-.637.226-.865a1.97 1.97 0 0 1 .576-.569 2.29 2.29 0 0 1 .78-.319c.287-.06.573-.09.86-.09.437 0 .84.037 1.21.113.369.076.697.205.983.387.287.182.517.433.69.751.173.319.275.72.305 1.206h3.437c0-.94-.177-1.74-.531-2.4a4.653 4.653 0 0 0-1.436-1.628 6.044 6.044 0 0 0-2.069-.922 10.21 10.21 0 0 0-2.43-.284c-.725 0-1.448.099-2.172.296-.723.197-1.372.5-1.944.91a4.835 4.835 0 0 0-1.391 1.536c-.354.615-.532 1.34-.532 2.174 0 .743.14 1.377.419 1.9.279.523.644.96 1.096 1.308.453.35.965.634 1.538.854.573.22 1.161.406 1.764.557.588.167 1.168.32 1.741.456.573.136 1.086.295 1.538.478.452.182.818.41 1.097.682.279.273.418.63.418 1.07 0 .41-.106.747-.317 1.013a2.222 2.222 0 0 1-.791.625 3.524 3.524 0 0 1-1.018.308c-.361.053-.7.08-1.017.08-.468 0-.92-.058-1.357-.171a3.367 3.367 0 0 1-1.142-.524 2.58 2.58 0 0 1-.78-.921c-.196-.38-.294-.843-.294-1.389H30.44c-.015 1.002.166 1.866.542 2.595a5.106 5.106 0 0 0 1.527 1.798c.64.47 1.38.815 2.216 1.035.837.22 1.7.33 2.59.33zm16.327-.364L59 46.386h-3.663l-3.641 11.425h-.045l-3.596-11.424h-3.64l5.223 16.249h4.003z" fill="#FFF" fill-rule="nonzero"/></g><path d="M0 0H80V80H0z"/></g></svg>