<svg width="150" height="150" xmlns="http://www.w3.org/2000/svg"><g fill="none" fill-rule="evenodd"><path d="M0 0H150V150H0z"/><path d="M133.595 0H17.405C10.002 0 4 5.988 4 13.375v80.25C4 101.012 10.002 107 17.405 107h116.19c7.403 0 13.405-5.988 13.405-13.375v-80.25C147 5.988 140.998 0 133.595 0zm8.937 91.643L100.264 49.47l42.268-26.874v69.047zM17.405 4.458h116.19c4.928 0 8.937 4 8.937 8.917v3.938L81.013 56.428a9.861 9.861 0 0 1-10.834-.157l-61.71-41.85v-1.046c0-4.917 4.008-8.917 8.936-8.917zM8.468 19.807l42.864 29.068L8.468 91.643V19.807zm125.127 82.735H17.405c-3.68 0-6.845-2.234-8.213-5.413l45.844-45.742 12.634 8.568a14.308 14.308 0 0 0 8.042 2.47c2.67 0 5.345-.744 7.7-2.24l13.052-8.299 45.344 45.243c-1.368 3.179-4.532 5.413-8.213 5.413z" fill="#0d6efd" fill-rule="nonzero"/><text font-family="LucidaGrande-Bold, Lucida Grande" font-size="38" font-weight="bold" fill="#0d6efd"><tspan x="23" y="144">SMTP</tspan></text></g></svg>