<svg width="150" height="150" xmlns="http://www.w3.org/2000/svg"><g fill="#0d6efd"><path d="M10.66 74.998c0 25.467 14.8 47.476 36.26 57.905l-30.69-84.09a64.097 64.097 0 0 0-5.57 26.185zm107.771-3.247c0-7.951-2.856-13.458-5.306-17.744-3.261-5.3-6.318-9.788-6.318-15.088 0-5.914 4.486-11.42 10.804-11.42.285 0 .556.036.834.052-11.447-10.487-26.697-16.89-43.447-16.89-22.477 0-42.251 11.532-53.755 29 1.51.045 2.932.077 4.14.077 6.73 0 17.146-.816 17.146-.816 3.469-.205 3.878 4.89.413 5.3 0 0-3.485.41-7.364.613l23.43 69.69 14.08-42.228-10.025-27.465a117.225 117.225 0 0 1-6.746-.613c-3.467-.203-3.061-5.504.406-5.3 0 0 10.625.817 16.947.817 6.728 0 17.146-.817 17.146-.817 3.471-.204 3.879 4.89.413 5.3 0 0-3.493.41-7.364.613l23.25 69.164 6.418-21.446c2.781-8.899 4.898-15.29 4.898-20.799z"/><path d="M76.127 80.626L56.823 136.72a64.333 64.333 0 0 0 18.175 2.622 64.268 64.268 0 0 0 21.365-3.647 5.65 5.65 0 0 1-.458-.887L76.127 80.626zm55.325-36.496c.277 2.05.433 4.25.433 6.616 0 6.529-1.22 13.868-4.892 23.045l-19.652 56.822c19.127-11.155 31.992-31.878 31.992-55.614.002-11.186-2.856-21.705-7.881-30.87z"/><path d="M74.998 0C33.645 0 0 33.644 0 74.998 0 116.358 33.645 150 74.998 150 116.35 150 150 116.357 150 74.998 150 33.644 116.35 0 74.998 0zm0 146.562c-39.456 0-71.56-32.103-71.56-71.564 0-39.458 32.102-71.56 71.56-71.56 39.456 0 71.556 32.102 71.556 71.56 0 39.46-32.1 71.564-71.556 71.564z"/></g></svg>