<svg width="154" height="154" xmlns="http://www.w3.org/2000/svg"><g transform="translate(2 2)" fill="none" fill-rule="evenodd"><path d="M146.59 0H3.41A3.41 3.41 0 0 0 0 3.41v143.18A3.41 3.41 0 0 0 3.41 150h143.18a3.409 3.409 0 0 0 3.41-3.41V3.41A3.41 3.41 0 0 0 146.59 0z" stroke="#0d6efd" stroke-width="3"/><path stroke="#0d6efd" stroke-width="3" stroke-linecap="round" stroke-linejoin="round" d="M95.638 54.362L148.993 1.007"/><path d="M78.523 3.44c0-1.9-1.352-3.44-3.02-3.44s-3.02 1.54-3.02 3.44v34.396c0 1.9 1.352 3.44 3.02 3.44s3.02-1.54 3.02-3.44V3.44zm0 108.724c0-1.9-1.352-3.44-3.02-3.44s-3.02 1.54-3.02 3.44v34.396c0 1.9 1.352 3.44 3.02 3.44s3.02-1.54 3.02-3.44v-34.396zm33.641-39.68c-1.9 0-3.44 1.351-3.44 3.02 0 1.667 1.54 3.02 3.44 3.02h34.396c1.9 0 3.44-1.353 3.44-3.02 0-1.669-1.54-3.02-3.44-3.02h-34.396zm-108.724 0c-1.9 0-3.44 1.351-3.44 3.02 0 1.667 1.54 3.02 3.44 3.02h34.396c1.9 0 3.44-1.353 3.44-3.02 0-1.669-1.54-3.02-3.44-3.02H3.44z" fill="#0d6efd" fill-rule="nonzero"/><path d="M139.933 75.503c0 35.584-28.846 64.43-64.43 64.43-35.583 0-64.43-28.846-64.43-64.43 0-35.583 28.847-64.43 64.43-64.43 17.68 0 33.696 7.122 45.337 18.651" stroke="#0d6efd" stroke-width="3"/><path d="M126.846 76.007c0 28.077-22.762 50.839-50.84 50.839-28.077 0-50.838-22.762-50.838-50.84 0-28.077 22.761-50.838 50.839-50.838 13.856 0 26.417 5.543 35.587 14.533" stroke="#0d6efd" stroke-width="3"/><path d="M76.22 54.362c4.236 0 7.391 1.072 9.468 3.214 2.118 2.143 3.176 4.663 3.176 7.562 0 2.017-.57 3.823-1.71 5.42-1.1 1.554-2.341 2.604-3.726 3.15 1.425.378 2.81 1.45 4.153 3.214 1.344 1.765 2.016 3.949 2.016 6.554 0 3.402-1.303 6.28-3.909 8.633-2.565 2.352-6.026 3.529-10.384 3.529-2.24 0-4.52-.4-6.84-1.198-2.281-.798-4.297-1.659-6.048-2.583l3.543-4.79c1.588.967 3.095 1.68 4.52 2.143 1.425.462 3.095.693 5.009.693 1.954 0 3.705-.567 5.253-1.701 1.588-1.135 2.382-2.689 2.382-4.664 0-2.1-.774-3.78-2.322-5.04-1.547-1.26-4.051-1.891-7.512-1.891h-2.2l-.977-5.482h3.543c2.688 0 4.805-.526 6.352-1.576 1.589-1.05 2.383-2.478 2.383-4.285 0-1.386-.57-2.584-1.71-3.592-1.14-1.008-2.688-1.512-4.643-1.512-1.954 0-3.726.357-5.314 1.07-1.588.673-2.911 1.387-3.97 2.143l-3.299-4.788a27.334 27.334 0 0 1 5.925-3.025c2.118-.799 4.398-1.198 6.841-1.198z" fill="#0d6efd" fill-rule="nonzero"/></g></svg>